<?xml version="1.0" encoding="UTF-8"?>
<svg width="511px" height="590px" viewBox="0 0 511 590" version="1.1" xmlns="http://www.w3.org/2000/svg" xmlns:xlink="http://www.w3.org/1999/xlink">
    <!-- Generator: Sketch 52.6 (67491) - http://www.bohemiancoding.com/sketch -->
    <title>cn-color-p</title>
    <desc>Created with Sketch.</desc>
    <g id="Page-1" stroke="none" stroke-width="1" fill="none" fill-rule="evenodd">
        <g id="cn-color-p" transform="translate(-1.000000, -1.000000)" fill="#1C376A">
            <g id="SvgjsG1486" transform="translate(0.201061, 0.714403)">
                <polygon id="Path" points="206.798939 386.285597 77.798939 315.701158 77.798939 276.583195 206.798939 206.285597 206.798939 252.337946 116.817104 295.64379 206.798939 340.577458"></polygon>
                <polygon id="Path" points="219.798939 417.285597 266.574017 172.285597 293.798939 172.285597 246.498783 417.285597"></polygon>
                <polygon id="Path" points="304.798939 387.285597 304.798939 341.503425 395.495942 296.876571 304.798939 252.723326 304.798939 207.285597 434.798939 277.638013 434.798939 316.459573"></polygon>
                <path d="M256.291749,590.285597 L0.798939,442.796382 L0.798939,147.782002 L256.291749,0.285597 L511.798939,147.789192 L511.798939,442.774812 L256.291749,590.285597 Z M26.7192288,427.820266 L256.291749,560.354935 L485.878649,427.820266 L485.878649,162.750928 L256.291749,30.2090695 L26.7192288,162.743738 L26.7192288,427.820266 Z" id="Shape" fill-rule="nonzero"></path>
            </g>
        </g>
    </g>
</svg>